custom-analysis
version=1
nRows=4
nColumns=98
inDegrees=no

This file contains tibia displacement and acting force.

Units are S.I. units (seconds, meters, Newtons, ...)
Angles are in degrees.

endheader
time	APT	SIT	knee_angle	aACL_R_force	pACL_R_force	aPCL_R_force	pPCL_R_force	aMCL_R_force	mMCL_R_force	pMCL_R_force	aLCL_R_force	mLCL_R_force	pLCL_R_force	aPCL_L_force	pPCL_L_force	aMCL_L_force	aLCL_L_force	aACL_R_length	pACL_R_length	aPCL_R_length	pPCL_R_length	aMCL_R_length	mMCL_R_length	pMCL_R_length	aLCL_R_length	mLCL_R_length	pLCL_R_length	aPCL_L_length	pPCL_L_length	aMCL_L_length	aLCL_L_length	aACL_R_strain	pACL_R_strain	aPCL_R_strain	pPCL_R_strain	aMCL_R_strain	mMCL_R_strain	pMCL_R_strain	aLCL_R_strain	mLCL_R_strain	pLCL_R_strain	aPCL_L_strain	pPCL_L_strain	aMCL_L_strain	aLCL_L_strain	femur_lat_meniscii_r.femur_lat_r.force.X	femur_lat_meniscii_r.femur_lat_r.force.Y	femur_lat_meniscii_r.femur_lat_r.force.Z	femur_lat_meniscii_r.femur_lat_r.torque.X	femur_lat_meniscii_r.femur_lat_r.torque.Y	femur_lat_meniscii_r.femur_lat_r.torque.Z	femur_lat_meniscii_r.meniscus_lat_r.force.X	femur_lat_meniscii_r.meniscus_lat_r.force.Y	femur_lat_meniscii_r.meniscus_lat_r.force.Z	femur_lat_meniscii_r.meniscus_lat_r.torque.X	femur_lat_meniscii_r.meniscus_lat_r.torque.Y	femur_lat_meniscii_r.meniscus_lat_r.torque.Z	femur_med_meniscii_r.femur_med_r.force.X	femur_med_meniscii_r.femur_med_r.force.Y	femur_med_meniscii_r.femur_med_r.force.Z	femur_med_meniscii_r.femur_med_r.torque.X	femur_med_meniscii_r.femur_med_r.torque.Y	femur_med_meniscii_r.femur_med_r.torque.Z	femur_med_meniscii_r.meniscus_med_r.force.X	femur_med_meniscii_r.meniscus_med_r.force.Y	femur_med_meniscii_r.meniscus_med_r.force.Z	femur_med_meniscii_r.meniscus_med_r.torque.X	femur_med_meniscii_r.meniscus_med_r.torque.Y	femur_med_meniscii_r.meniscus_med_r.torque.Z	femur_med_tibia_r.tibia_upper_r.force.X	femur_med_tibia_r.tibia_upper_r.force.Y	femur_med_tibia_r.tibia_upper_r.force.Z	femur_med_tibia_r.tibia_upper_r.torque.X	femur_med_tibia_r.tibia_upper_r.torque.Y	femur_med_tibia_r.tibia_upper_r.torque.Z	femur_med_tibia_r.femur_med_r.force.X	femur_med_tibia_r.femur_med_r.force.Y	femur_med_tibia_r.femur_med_r.force.Z	femur_med_tibia_r.femur_med_r.torque.X	femur_med_tibia_r.femur_med_r.torque.Y	femur_med_tibia_r.femur_med_r.torque.Z	femur_lat_tibia_r.tibia_upper_r.force.X	femur_lat_tibia_r.tibia_upper_r.force.Y	femur_lat_tibia_r.tibia_upper_r.force.Z	femur_lat_tibia_r.tibia_upper_r.torque.X	femur_lat_tibia_r.tibia_upper_r.torque.Y	femur_lat_tibia_r.tibia_upper_r.torque.Z	femur_lat_tibia_r.femur_lat_r.force.X	femur_lat_tibia_r.femur_lat_r.force.Y	femur_lat_tibia_r.femur_lat_r.force.Z	femur_lat_tibia_r.femur_lat_r.torque.X	femur_lat_tibia_r.femur_lat_r.torque.Y	femur_lat_tibia_r.femur_lat_r.torque.Z	femur_lat_meniscii_force_r	femur_med_meniscii_force_r	femur_lat_tibia_force_r	femur_med_tibia_force_r
      0.10725403	      0.00841721	      0.00745426	     27.87317185	     13.26010167	    -11.31576267	      0.00000000	     53.12390795	      0.00000000	      0.00000000	    -38.20311365	      0.00000000	      0.00000000	      0.00000000	      0.00000000	      0.00000000	      0.00000001	      0.00000000	      0.03272538	      0.02564951	      0.03072714	      0.02998455	      0.05723926	      0.05958735	      0.05895859	      0.05323981	      0.05023461	      0.04671039	      0.01525851	      0.01651186	      0.06550154	      0.04489616	      0.05547012	      0.02357705	     -0.01183988	      0.00323697	     -0.04644142	     -0.00344777	      0.00392643	     -0.04890189	     -0.10802802	     -0.10760448	      0.00000079	     -0.32847694	      0.00000060	     -0.00000086	     40.33708395	    233.75473209	     34.81816317	    -19.94690493	      1.05774498	     15.83200150	    -40.33708395	   -233.75473209	    -34.81816317	      7.14049343	     -1.49729684	      1.95528443	    -25.56446331	     45.92232736	      3.01485599	     -0.13755820	      0.60618130	    -10.47490140	     25.56446331	    -45.92232736	     -3.01485599	     -0.91562667	     -0.58121590	      1.16414967	    -75.77004651	   -507.75984289	    120.96259785	    -12.18549141	      2.11303348	      1.24428313	     75.77004651	    507.75984289	   -120.96259785	     59.53933063	     -1.05428021	     32.86208585	    -52.77287476	   -212.04777189	    -52.30491307	      7.19462681	     -1.88743888	      0.39227384	     52.77287476	    212.04777189	     52.30491307	    -26.73453404	      1.24409823	     21.93060103	    239.75124526	     52.64495504	    224.68875763	    527.44014644
      0.10807147	      0.00846803	      0.00756565	     28.24207326	     13.80412888	    -10.75915984	      0.00000000	     53.58246772	      0.00000000	      0.00000000	    -36.77839821	      0.00000000	      0.00000000	      0.00000000	      0.00000000	      0.00000000	      0.00000001	      0.00000000	      0.03270607	      0.02561924	      0.03079027	      0.03002888	      0.05726930	      0.05958271	      0.05891633	      0.05323198	      0.05020382	      0.04665669	      0.01525851	      0.01651186	      0.06550154	      0.04489616	      0.05484742	      0.02236890	     -0.00980947	      0.00472024	     -0.04594095	     -0.00352522	      0.00320677	     -0.04904184	     -0.10857486	     -0.10863041	      0.00000079	     -0.32847694	      0.00000060	     -0.00000086	     41.33120314	    230.10166798	     36.11801466	    -20.41317537	      1.08223068	     16.25319772	    -41.33120314	   -230.10166798	    -36.11801466	      7.09410085	     -1.53997054	      1.90450242	    -24.02983362	     44.76807162	      3.77894351	     -0.48728648	      0.56796691	     -9.84161199	     24.02983362	    -44.76807162	     -3.77894351	     -0.86206928	     -0.55531168	      1.11130296	    -82.75861551	   -518.33019376	    122.91277236	    -12.42787287	      2.25379345	      1.13730222	     82.75861551	    518.33019376	   -122.91277236	     60.53282674	     -1.17313828	     35.80951378	    -51.37516285	   -204.69389062	    -50.79502618	      6.94805301	     -1.84648601	      0.41192083	     51.37516285	    204.69389062	     50.79502618	    -25.93342695	      1.21715489	     21.32636726	    236.55772434	     50.94991221	    217.06941493	    539.09435892
      0.10888892	      0.00852311	      0.00767689	     28.61346677	     13.71871146	    -10.75236118	      0.00000000	     54.99421841	      0.00000000	      0.00000000	    -35.89560504	      0.00000000	      0.00000000	      0.00000000	      0.00000000	      0.00000000	      0.00000001	      0.00000000	      0.03268830	      0.02559036	      0.03085361	      0.03007286	      0.05730128	      0.05957951	      0.05887553	      0.05322562	      0.05017425	      0.04660407	      0.01525851	      0.01651186	      0.06550154	      0.04489616	      0.05427410	      0.02121640	     -0.00777270	      0.00619188	     -0.04540831	     -0.00357878	      0.00251201	     -0.04915529	     -0.10909989	     -0.10963578	      0.00000079	     -0.32847694	      0.00000060	     -0.00000086	     38.96884948	    226.55487278	     36.30146493	    -20.40344449	      1.01458358	     15.24957731	    -38.96884948	   -226.55487278	    -36.30146493	      6.99897897	     -1.47229970	      1.99640483	    -23.17790267	     44.15621555	      4.51107658	     -0.80892608	      0.54610870	     -9.49357357	     23.17790267	    -44.15621555	     -4.51107658	     -0.82316827	     -0.54408674	      1.08808420	    -87.02306768	   -519.87085299	    121.65494721	    -12.40769555	      2.32831643	      1.07735833	     87.02306768	    519.87085299	   -121.65494721	     60.01806921	     -1.25184630	     37.57973140	    -49.93949516	   -197.69953845	    -49.13635904	      6.70090073	     -1.80172563	      0.43603460	     49.93949516	    197.69953845	     49.13635904	    -25.07373926	      1.18807877	     20.70610948	    232.73048353	     50.07330982	    209.74613812	    540.96085281
      0.10970637	      0.00858051	      0.00778882	     28.98698824	     13.03986168	    -11.24629134	      0.00000000	     56.48908068	      0.00000000	      0.00000000	    -35.99768817	      0.00000000	      0.00000000	      0.00000000	      0.00000000	      0.00000000	      0.00000001	      0.00000000	      0.03267070	      0.02556174	      0.03091705	      0.03011640	      0.05733414	      0.05957677	      0.05883518	      0.05321979	      0.05014489	      0.04655152	      0.01525851	      0.01651186	      0.06550154	      0.04489616	      0.05370661	      0.02007432	     -0.00573229	      0.00764866	     -0.04486087	     -0.00362463	      0.00182510	     -0.04925951	     -0.10962112	     -0.11063961	      0.00000079	     -0.32847694	      0.00000060	     -0.00000086	     36.31164723	    226.21141442	     35.66946317	    -20.12967377	      0.93905570	     14.10909089	    -36.31164723	   -226.21141442	    -35.66946317	      6.95867056	     -1.38793342	      2.14576786	    -22.66258516	     43.63965341	      5.14047074	     -1.08222366	      0.53202258	     -9.28934113	     22.66258516	    -43.63965341	     -5.14047074	     -0.79305228	     -0.53897060	      1.08087283	    -91.37118301	   -516.67097025	    120.51204376	    -12.32046008	      2.40554500	      0.97811937	     91.37118301	    516.67097025	   -120.51204376	     59.47116039	     -1.33204838	     39.37353062	    -48.32021671	   -190.53679616	    -48.21959792	      6.48012799	     -1.76101289	      0.46440705	     48.32021671	    190.53679616	     48.21959792	    -24.52387848	      1.15578833	     20.00850284	    231.86731193	     49.44124346	    202.39625407	    538.35001372
